<?xml version="1.0" standalone="no"?><!DOCTYPE svg PUBLIC "-//W3C//DTD SVG 1.1//EN" "http://www.w3.org/Graphics/SVG/1.1/DTD/svg11.dtd"><svg width="50" height="100%" viewBox="0 0 358 358" version="1.1" xmlns="http://www.w3.org/2000/svg" xmlns:xlink="http://www.w3.org/1999/xlink" xml:space="preserve" style="fill-rule:evenodd;clip-rule:evenodd;stroke-linejoin:round;stroke-miterlimit:1.41421;"><path d="M262.95,323.256c-0.594,-10.725 -9.481,-45.856 -11.862,-54.819c-1.732,-6.562 -4.057,-12.943 -6.6,-19.118c2.537,3.9 6.081,6.918 10.9,8.137c13.706,3.431 16.981,-13.525 2.637,-29.35c-9.169,-10.093 -11.744,-21.787 -12.419,-28.943c4.088,-2.763 8.488,-6.732 13.238,-12.226c-65.813,18.138 -62.725,-24.618 -62.725,-24.618c0.706,20.193 31.825,19.506 31.825,19.506l0.219,0.019c7.393,-8.644 24.318,-13.956 57.337,-9.632c0,0 -11.319,-34.062 -47.619,-37.243c-21.537,-1.9 -26.45,14.381 -26.45,14.381c0,0 -2.481,-18.338 24.863,-19.406c27.331,-1.075 13.35,-26.544 -3.313,-37.882c-16.681,-11.324 -7.962,-14.324 -15.293,-14.018c-7.332,0.312 3.637,7.837 0.162,8.268c-3.462,0.438 -37.694,-47.574 -47.687,-52.043c-9.982,-4.463 -4.194,5.156 -0.144,7.25c4.025,2.081 23.306,27.894 16.162,30.162c-7.15,2.288 -16.481,6.169 -31.587,-12.194c-15.106,-18.356 -25.45,-26.756 -40.825,-27.681c-15.375,-0.95 -7.188,5.669 4.787,12.875c11.975,7.194 15.25,11.1 15.169,17.875c-0.094,6.788 6.756,12.688 12.513,13.113c0,0 -6.5,4.325 -21.338,-6.244c-14.862,-10.556 -20.925,-18.306 -31.275,-20.387c-10.356,-2.094 -22.137,39.243 3.656,54.418c15.138,8.913 21.469,10.938 24.125,11.088c-2.75,0.856 -8.312,2.05 -15.787,0.887c0,0 6.087,10.656 28.325,4.9c22.237,-5.756 39.731,0.363 33.269,7.606c-6.482,7.232 -30.757,35.482 -44.294,75.582c-12.388,36.793 -14.413,72.331 -37.725,91.212c-2.844,5.775 -5.869,11.263 -8.938,16.444c-39.662,-30.631 -65.237,-78.619 -65.237,-132.625c0,-92.531 75.019,-167.538 167.531,-167.538c92.531,0 167.544,75.013 167.544,167.538c0.006,61.756 -33.425,115.65 -83.144,144.706ZM240.788,240.85c-6.682,-14.662 -13.838,-27.725 -16.432,-38.063c4.332,1.95 9.513,2.163 15.538,-0.431c1.437,6.544 0.95,15.557 -0.1,22.263c-0.731,4.768 -0.506,10.694 0.994,16.231M179.725,136.156c1.819,-3.412 9.256,-7.331 14.938,-6.344c11.75,1.444 9.668,10.538 10.231,14.357c-1.55,-3.313 -5.725,-7.644 -10.881,-8.544c-5.15,-0.906 -11.719,-2.081 -14.288,0.531M178.563,0c-98.619,0 -178.563,79.938 -178.563,178.556c0,98.607 79.944,178.563 178.563,178.563c98.612,0 178.556,-79.956 178.556,-178.563c0,-98.619 -79.944,-178.556 -178.556,-178.556" style="fill:#fff;fill-rule:nonzero;"/></svg>